<?xml version="1.0" encoding="UTF-8" standalone="no"?>
<!-- Created with Inkscape (http://www.inkscape.org/) -->

<svg
   width="210mm"
   height="210mm"
   viewBox="0 0 210 210"
   version="1.1"
   id="svg7734"
   inkscape:version="1.2.1 (9c6d41e410, 2022-07-14)"
   sodipodi:docname="admin_logo.svg"
   xmlns:inkscape="http://www.inkscape.org/namespaces/inkscape"
   xmlns:sodipodi="http://sodipodi.sourceforge.net/DTD/sodipodi-0.dtd"
   xmlns="http://www.w3.org/2000/svg"
   xmlns:svg="http://www.w3.org/2000/svg">
  <sodipodi:namedview
     id="namedview7736"
     pagecolor="#ffffff"
     bordercolor="#000000"
     borderopacity="0.25"
     inkscape:showpageshadow="2"
     inkscape:pageopacity="0.0"
     inkscape:pagecheckerboard="0"
     inkscape:deskcolor="#d1d1d1"
     inkscape:document-units="mm"
     showgrid="false"
     inkscape:zoom="0.46769781"
     inkscape:cx="345.30844"
     inkscape:cy="427.62655"
     inkscape:window-width="1366"
     inkscape:window-height="705"
     inkscape:window-x="-8"
     inkscape:window-y="-8"
     inkscape:window-maximized="1"
     inkscape:current-layer="layer1" />
  <defs
     id="defs7731" />
  <g
     inkscape:label="Capa 1"
     inkscape:groupmode="layer"
     id="layer1">
    <path
       id="rect4941"
       style="fill:#000000;fill-opacity:1;stroke-width:0.432181;stroke-linecap:round;stroke-linejoin:round"
       d="m 81.788728,5.2499978 c -5.141009,0 -9.279725,4.1387183 -9.279725,9.2797252 v 4.639863 c 0,0.801751 0.100601,1.57913 0.290029,2.320234 H 43.533929 c -7.44964,0 -13.446701,5.997062 -13.446701,13.446701 V 188.35534 c 0,7.44963 5.997061,13.4461 13.446701,13.4461 H 165.77975 c 7.44964,0 13.44731,-5.99647 13.44731,-13.4461 V 34.936521 c 0,-7.449639 -5.99767,-13.446701 -13.44731,-13.446701 h -26.94486 c 0.18942,-0.741104 0.29003,-1.518484 0.29003,-2.320234 v -4.639863 c 0,-5.1410069 -4.13872,-9.2797252 -9.27973,-9.2797252 z M 51.886045,36.301898 H 155.59422 c 6.31997,0 11.40801,5.088039 11.40801,11.40802 V 177.86404 c 0,6.31997 -5.08804,11.40801 -11.40801,11.40801 H 51.886045 c -6.319982,0 -11.40802,-5.08804 -11.40802,-11.40801 V 47.709918 c 0,-6.319981 5.088038,-11.40802 11.40802,-11.40802 z m 46.665653,35.876439 c -2.336942,0 -4.218441,1.881509 -4.218441,4.218442 v 6.909844 a 34.660323,34.660323 0 0 0 -5.21085,2.1955 c -0.0486,-0.054 -0.0941,-0.10961 -0.14592,-0.16166 l -5.291973,-5.313777 c -0.82452,-0.827937 -1.902002,-1.243369 -2.980217,-1.245491 -1.078216,-0.0021 -2.157124,0.408861 -2.985061,1.233381 l -9.299102,9.260347 c -1.655864,1.64903 -1.661752,4.30941 -0.01271,5.96529 l 5.291974,5.314357 c 0.110326,0.11073 0.225744,0.2128 0.344523,0.3088 a 34.660323,34.660323 0 0 0 -2.002352,4.96622 c -0.09331,-0.006 -0.186034,-0.0139 -0.280947,-0.0139 h -7.499587 c -2.336934,0 -4.217837,1.8815 -4.217837,4.21844 v 13.12337 c 0,2.3369 1.880903,4.21844 4.217837,4.21844 h 7.499587 c 0.1783,0 0.352595,-0.0144 0.52496,-0.0357 a 34.660323,34.660323 0 0 0 1.92485,4.58417 l -4.997102,4.97651 c -1.655877,1.64905 -1.66115,4.30942 -0.01212,5.96527 l 9.26035,9.29911 c 1.649041,1.65587 4.310007,1.66167 5.965884,0.0127 l 5.043723,-5.02313 a 34.660323,34.660323 0 0 0 4.87782,2.01627 v 7.03154 c 0,2.33694 1.880909,4.21785 4.217841,4.21785 h 13.123982 c 2.33694,0 4.21844,-1.88091 4.21844,-4.21785 v -7.0388 a 34.660323,34.660323 0 0 0 4.33349,-1.75531 c 0.0952,0.11879 0.19697,0.23407 0.30698,0.34452 l 5.29258,5.31438 c 1.64905,1.65588 4.30939,1.66029 5.96528,0.0117 l 9.29849,-9.26035 c 1.65586,-1.64902 1.6618,-4.3094 0.0128,-5.96528 l -5.29198,-5.31377 c -0.0318,-0.0319 -0.0662,-0.0589 -0.0987,-0.0896 a 34.660323,34.660323 0 0 0 2.15615,-4.98439 c 0.12529,0.0105 0.25138,0.0193 0.37964,0.0193 h 7.49959 c 2.33692,0 4.21783,-1.88151 4.21783,-4.21845 v -13.12337 c 0,-2.33694 -1.88091,-4.21843 -4.21783,-4.21843 h -7.49959 c -0.0266,0 -0.0523,0.004 -0.0787,0.005 a 34.660323,34.660323 0 0 0 -2.10105,-5.2169 l 4.87963,-4.859647 c 1.65585,-1.64904 1.6617,-4.3094 0.0128,-5.96528 l -9.26096,-9.299098 c -0.82452,-0.827939 -1.90188,-1.243262 -2.98021,-1.245492 -1.07832,-0.0022 -2.15715,0.408254 -2.98507,1.232776 l -4.84088,4.821514 a 34.660323,34.660323 0 0 0 -5.01588,-2.09318 v -6.90742 c 0,-2.336933 -1.88089,-4.218442 -4.21783,-4.218442 z m 6.543522,28.987183 a 15.069705,15.069705 0 0 1 15.06941,15.07002 15.069705,15.069705 0 0 1 -15.06941,15.07 15.069705,15.069705 0 0 1 -15.070023,-15.06999 15.069705,15.069705 0 0 1 15.070023,-15.07003 z" />
  </g>
</svg>
