<?xml version="1.0" encoding="UTF-8" standalone="no"?>
<!-- Created with Inkscape (http://www.inkscape.org/) -->

<svg
   width="210mm"
   height="210mm"
   viewBox="0 0 210 210"
   version="1.1"
   id="svg6104"
   inkscape:version="1.2.1 (9c6d41e410, 2022-07-14)"
   sodipodi:docname="operator_logo.svg"
   xmlns:inkscape="http://www.inkscape.org/namespaces/inkscape"
   xmlns:sodipodi="http://sodipodi.sourceforge.net/DTD/sodipodi-0.dtd"
   xmlns="http://www.w3.org/2000/svg"
   xmlns:svg="http://www.w3.org/2000/svg">
  <sodipodi:namedview
     id="namedview6106"
     pagecolor="#ffffff"
     bordercolor="#000000"
     borderopacity="0.25"
     inkscape:showpageshadow="2"
     inkscape:pageopacity="0.0"
     inkscape:pagecheckerboard="0"
     inkscape:deskcolor="#d1d1d1"
     inkscape:document-units="mm"
     showgrid="false"
     inkscape:zoom="0.46769781"
     inkscape:cx="298.26952"
     inkscape:cy="391.27829"
     inkscape:window-width="1366"
     inkscape:window-height="705"
     inkscape:window-x="-8"
     inkscape:window-y="-8"
     inkscape:window-maximized="1"
     inkscape:current-layer="layer1" />
  <defs
     id="defs6101" />
  <g
     inkscape:label="Capa 1"
     inkscape:groupmode="layer"
     id="layer1">
    <path
       id="path234"
       style="fill:#000000;fill-opacity:1;stroke-width:0.437843;stroke-linecap:round;stroke-linejoin:round"
       d="m 194.25183,10.838136 c -0.10486,0.0014 -0.21083,0.0081 -0.31734,0.02036 l -31.13812,3.583984 c -1.04708,0.120514 -1.9088,0.744997 -2.37235,1.603629 -0.14561,0.168819 -0.27607,0.35465 -0.38634,0.559431 L 84.827207,156.27399 24.793227,123.33312 c -1.503783,-0.82513 -3.378812,-0.27857 -4.203949,1.22521 l -4.919493,8.96561 c -0.825125,1.50377 -0.278566,3.37882 1.225216,4.20393 l 71.8273,39.41195 c 1.503772,0.82513 3.378801,0.27914 4.203937,-1.22465 l 4.919493,-8.96618 c 0.135896,-0.24767 0.231357,-0.50557 0.294702,-0.76702 L 171.48935,29.969678 195.81189,27.170257 c 1.70403,-0.196124 2.91806,-1.726095 2.72193,-3.430125 l -1.16977,-10.15971 c -0.18386,-1.597528 -1.53937,-2.764284 -3.11222,-2.74229 z M 86.254345,50.759161 c -1.097913,-0.0058 -2.161433,0.575442 -2.728713,1.609286 L 70.707356,75.728821 c -0.825137,1.503771 -0.278578,3.378242 1.225204,4.203378 l 32.95668,18.083952 c 1.50378,0.825138 3.37882,0.27858 4.20395,-1.225208 l 12.81771,-23.36037 c 0.82514,-1.503776 0.27857,-3.378809 -1.22519,-4.203942 L 87.729569,51.14324 c -0.469925,-0.257853 -0.97617,-0.381455 -1.475224,-0.384079 z M 47.878688,77.288898 c -1.097912,-0.0055 -2.161433,0.575435 -2.728713,1.609281 L 27.066583,111.85487 c -0.825137,1.50378 -0.279135,3.3788 1.224647,4.20394 l 52.149328,28.61473 c 1.503772,0.82514 3.378812,0.27857 4.203938,-1.2252 l 18.083954,-32.9567 c 0.82513,-1.50376 0.27856,-3.37824 -1.22519,-4.20337 L 49.353912,77.673543 c -0.469925,-0.257856 -0.97617,-0.382029 -1.475224,-0.384645 z m 96.888602,50.389012 a 36.844472,36.844472 0 0 0 -36.84443,36.84443 36.844472,36.844472 0 0 0 36.84443,36.84443 36.844472,36.844472 0 0 0 36.84443,-36.84443 36.844472,36.844472 0 0 0 -36.84443,-36.84443 z" />
  </g>
</svg>
